/vscmnt/brussel_pixiu_data/_data_brussel/112/vsc11236/PredSimResults/SUBJ09opt3D/trackIG/worker_11.mot
version=1
nRows=6
nColumns=50
inDegrees=yes
endheader
                time	         pelvis_tilt	         pelvis_list	     pelvis_rotation	           pelvis_tx	           pelvis_ty	           pelvis_tz	       hip_flexion_r	     hip_adduction_r	      hip_rotation_r	        knee_angle_r	       ankle_angle_r	         mtp_angle_r	       hip_flexion_l	     hip_adduction_l	      hip_rotation_l	        knee_angle_l	       ankle_angle_l	         mtp_angle_l	    lumbar_extension	      lumbar_bending	     lumbar_rotation	 ercspn_r/activation	 intobl_r/activation	 extobl_r/activation	    abd_r/activation	    add_r/activation	hamstrings_r/activation	bifemsh_r/activation	glut_max_r/activation	iliopsoas_r/activation	rect_fem_r/activation	  vasti_r/activation	gastroc_r/activation	 soleus_r/activation	tib_ant_r/activation	 ercspn_l/activation	 intobl_l/activation	 extobl_l/activation	    abd_l/activation	    add_l/activation	hamstrings_l/activation	bifemsh_l/activation	glut_max_l/activation	iliopsoas_l/activation	rect_fem_l/activation	  vasti_l/activation	gastroc_l/activation	 soleus_l/activation	tib_ant_l/activation	
          1.63755966	         -5.76321949	          2.81713338	         -9.51155528	          2.62009546	          0.97420880	          0.00389914	        -16.58096903	         -4.41692981	         -1.95407975	         -9.34960757	          0.46809083	         41.82135336	         33.00192871	         -0.58020693	         -9.16766948	         -7.57370155	          6.11719781	          0.26911920	        -12.26414536	         -1.89309792	          7.16017476	          0.04467677	          0.00999999	          0.00999999	          0.02049572	          0.10814092	          0.02570767	          0.22345171	          0.01397007	          0.23439134	          0.00999999	          0.00999999	          0.31495217	          0.17147116	          0.01420484	          0.05888671	          0.12977604	          0.01397007	          0.01193681	          0.30927095	          0.09947728	          0.18569611	          0.21930587	          0.14411259	          0.00999999	          0.00999999	          0.02306732	          0.01079227	          0.39977433	
          1.64847673	         -5.71879222	          2.97133610	         -9.48507523	          2.64248552	          0.97177239	          0.00340113	        -16.93097296	         -4.79611506	         -2.47722583	        -10.93935253	         -1.00721837	         43.45781450	         32.98421507	         -0.36100542	         -9.27986425	         -9.84792409	          5.62682715	          0.21197378	        -11.74803338	         -2.29194067	          7.34037495	          0.09535072	          0.00999999	          0.00999999	          0.01734058	          0.09149357	          0.02175020	          0.18905327	          0.01181950	          0.31346214	          0.00999999	          0.00999999	          0.26646803	          0.14507467	          0.01201813	          0.04982162	          0.10979815	          0.01181950	          0.15490351	          0.31972609	          0.08680012	          0.15710981	          0.29906207	          0.12192771	          0.00999999	          0.00999999	          0.01951630	          0.01181950	          0.45349146	
          1.65939379	         -5.66118124	          3.11238388	         -9.41636866	          2.66474398	          0.96970451	          0.00279770	        -16.88326798	         -5.17881966	         -3.01035869	        -13.24839544	         -2.45544575	         44.67675986	         32.90835583	         -0.13133200	         -9.32816572	        -12.02921534	          5.05512845	          0.19524936	        -11.26609166	         -2.67347768	          7.48163059	          0.08084390	          0.00999999	          0.00999999	          0.01467115	          0.07740893	          0.01840195	          0.15995016	          0.00999999	          0.38049757	          0.00999999	          0.00999999	          0.22544760	          0.12274169	          0.01016804	          0.04686039	          0.09289568	          0.00999999	          0.20851536	          0.32412824	          0.07343799	          0.13292413	          0.35282115	          0.10315800	          0.00999999	          0.01073345	          0.01651194	          0.00999999	          0.50695376	
          1.67031085	         -5.59159153	          3.24983288	         -9.30936917	          2.68651797	          0.96821886	          0.00207889	        -16.33177547	         -5.58959126	         -3.54622238	        -16.43181910	         -3.76969650	         45.07152758	         32.93334489	          0.10986928	         -9.31217623	        -14.35363584	          4.51383964	          0.14992079	        -10.85892142	         -3.05200697	          7.57897062	          0.15307962	          0.00999999	          0.00999999	          0.01241265	          0.14252186	          0.01556913	          0.13532723	          0.00999999	          0.32192328	          0.00999999	          0.00999999	          0.19074190	          0.10384667	          0.00999999	          0.07033327	          0.07859520	          0.00999999	          0.24356196	          0.34887966	          0.06213285	          0.11246162	          0.37089386	          0.08727772	          0.00999999	          0.16834488	          0.01397007	          0.00999999	          0.53676115	
          1.68122792	         -5.51433894	          3.36988226	         -9.16356164	          2.70772230	          0.96747944	          0.00127811	        -15.25984950	         -6.02303574	         -4.08636959	        -20.44894555	         -5.15965299	         44.61465149	         32.94711528	          0.35901912	         -9.26174828	        -16.66734899	          4.30244118	          0.09387249	        -10.53194790	         -3.41330840	          7.62935962	          0.15773505	          0.00999999	          0.00999999	          0.01050183	          0.19582427	          0.01317240	          0.11449478	          0.00999999	          0.27236600	          0.00999999	          0.00999999	          0.16137885	          0.08786038	          0.00999999	          0.05950608	          0.06649615	          0.00999999	          0.27106221	          0.31765715	          0.05256804	          0.09514913	          0.36578885	          0.07384208	          0.00999999	          0.31490797	          0.01181950	          0.00999999	          0.54093215	
          1.69214498	         -5.43596298	          3.46334728	         -8.97484621	          2.72827423	          0.96762656	          0.00043730	        -13.69061922	         -6.47658093	         -4.63284533	        -25.14422726	         -6.89191364	         43.31148876	         32.81052664	          0.62401712	         -9.18088486	        -18.72029595	          4.47977411	          0.05209278	        -10.28947840	         -3.75016135	          7.62571624	          0.13991985	          0.00999999	          0.00999999	          0.00999999	          0.22778410	          0.01114462	          0.09686931	          0.00999999	          0.23043762	          0.00999999	          0.00999999	          0.13653598	          0.07433504	          0.00999999	          0.05034564	          0.05625965	          0.00999999	          0.29927840	          0.30536680	          0.05658993	          0.08050175	          0.31019647	          0.06247473	          0.00999999	          0.37199302	          0.00999999	          0.00999999	          0.51024401	
